<?xml version="1.0" encoding="UTF-8"?>
<svg width="242px" height="51px" viewBox="0 0 242 51" version="1.1" xmlns="http://www.w3.org/2000/svg" xmlns:xlink="http://www.w3.org/1999/xlink" aria-hidden="true">

    <g id="" stroke="none" stroke-width="1" fill="none" fill-rule="evenodd">
        <g id="" fill-rule="nonzero">
            <g id="">
                <g id="">
                    <path d="M69.25,23.2 C67.4495296,23.2871366 65.6962195,22.6085702 64.4235113,21.3320514 C63.150803,20.0555327 62.4774813,18.3002019 62.57,16.5 C62.4706248,14.689105 63.1466512,12.9214968 64.429074,11.639074 C65.7114968,10.3566512 67.479105,9.6806248 69.29,9.78 C70.5341576,9.74830053 71.7670215,10.0230334 72.88,10.58 L73,10.63 L73,14.06 L70.65,14.06 L70.65,12.51 C70.3204867,12.3306724 69.954712,12.2281187 69.58,12.21 L69.34,12.21 C68.2306529,12.2074697 67.1700765,12.6657547 66.4116618,13.4753623 C65.6532471,14.28497 65.265116,15.3731803 65.34,16.48 C65.2592977,17.5901519 65.6448213,18.6837262 66.4038913,19.4978287 C67.1629612,20.3119312 68.2269225,20.7729295 69.34,20.77 C70.7254862,20.8068369 72.0755668,20.3294997 73.13,19.43 L73.13,22.2 C71.9522531,22.881398 70.6103855,23.2272401 69.25,23.2 Z M83.14,5.73 L81.36,8.9 L79.02,8.9 L80.79,5.73 L83.14,5.73 Z M79.17,22.98 L78.48,22.98 L75.23,22.98 L75.23,20.83 L76.48,20.83 L76.48,12.12 L75.23,12.12 L75.23,9.97 L78.22,9.97 L79.17,9.97 L85.04,9.97 L85.04,13.83 L82.7,13.83 L82.7,12.12 L79.17,12.12 L79.17,15.38 L82.77,15.38 L82.77,17.53 L79.17,17.53 L79.17,20.83 L82.83,20.83 L82.83,19.13 L85.17,19.13 L85.17,22.98 L79.17,22.98 Z M104.97,22.98 L104.28,22.98 L101.03,22.98 L101.03,20.83 L102.28,20.83 L102.28,12.12 L101.03,12.12 L101.03,9.97 L104.02,9.97 L104.97,9.97 L110.84,9.97 L110.84,13.83 L108.5,13.83 L108.5,12.12 L104.97,12.12 L104.97,15.38 L108.56,15.38 L108.56,17.53 L104.97,17.53 L104.97,20.83 L108.63,20.83 L108.63,19.13 L110.97,19.13 L110.97,22.98 L104.97,22.98 Z M92.29,39.61 L92.29,37.9 L94.63,37.9 L94.63,41.75 L88.63,41.75 L87.94,41.75 L84.69,41.75 L84.69,39.61 L85.94,39.61 L85.94,30.89 L84.69,30.89 L84.69,28.75 L87.68,28.75 L88.63,28.75 L94.5,28.75 L94.5,32.6 L92.16,32.6 L92.16,30.89 L88.63,30.89 L88.63,34.15 L92.22,34.15 L92.22,36.3 L88.63,36.3 L88.63,39.61 L92.29,39.61 Z M98.07,22.22 C97.2912055,22.6679214 96.4312622,22.9568352 95.54,23.07 C95.3,23.12 95.06,23.18 94.82,23.18 L94.7,23.18 C94.5835575,23.1902279 94.4664425,23.1902279 94.35,23.18 C94.1801443,23.1899057 94.0098557,23.1899057 93.84,23.18 L93.66,23.18 C92.5396454,23.1968828 91.4306246,22.9538566 90.42,22.47 C90.33,22.43 90.24,22.37 90.15,22.32 C88.0620948,21.1410785 86.8310268,18.8731175 86.98,16.48 C86.8806248,14.669105 87.5566512,12.9014968 88.839074,11.619074 C90.1214968,10.3366512 91.889105,9.6606248 93.7,9.76 L93.86,9.76 C94.7332497,9.76604073 95.6002584,9.90773087 96.43,10.18 C96.8685214,10.3134565 97.2884918,10.5016032 97.68,10.74 L97.68,14.04 L95.08,14.04 L95.08,12.49 C94.7465813,12.3114474 94.3777411,12.2089918 94,12.19 L93.67,12.19 C92.5897974,12.1895915 91.5553497,12.6260851 90.8019604,13.4001926 C90.0485711,14.1743001 89.6402943,15.2202058 89.67,16.3 C89.67,16.36 89.67,16.42 89.67,16.48 C89.6672952,16.7947301 89.6907088,17.109142 89.74,17.42 C90.0157861,19.3978601 91.7444368,20.8456051 93.74,20.77 C94.3468879,20.7710455 94.9504221,20.6800096 95.53,20.5 L95.53,18.62 L94.13,18.62 L94.13,16.48 L99.3,16.48 L99.3,18.62 L98.07,18.62 L98.07,22.22 Z M118.18,20.83 L118.19,23 L113,23 L113,20.83 L114.19,20.83 L114.19,12.12 L112.94,12.12 L112.94,9.98 L117.94,9.98 C121.18,9.98 123.3,11.21 123.3,14.38 C123.3,17.55 120.91,18.75 118.05,18.75 L116.93,18.75 L116.93,20.83 L118.18,20.83 Z M116.93,12.12 L116.93,16.61 L117.93,16.61 C119.58,16.61 120.58,15.89 120.58,14.38 C120.58,12.87 119.61,12.12 117.93,12.12 L116.93,12.12 Z M133.4,23 L129.46,23 L129.46,20.85 L130.7,20.85 L130.7,12.14 L129.46,12.14 L129.46,10 L134.54,10 C139.46,10 142.05,12.32 142.05,16.32 C142.05,20.64 139.26,23 134.56,23 L133.4,23 Z M133.4,12.15 L133.4,20.86 L134.67,20.86 C137.45,20.86 139.29,19.42 139.29,16.33 C139.29,13.66 137.6,12.15 134.6,12.15 L133.4,12.15 Z M70.72,30.89 L70.72,28.75 L75.93,28.75 L75.93,30.89 L74.84,30.89 L70.62,41.75 L67.52,41.75 L63.34,30.89 L62.24,30.89 L62.24,28.75 L67.61,28.75 L67.61,30.89 L66.19,30.89 L69.23,38.76 L72.12,30.89 L70.72,30.89 Z M77.44,30.89 L77.44,28.75 L82.64,28.75 L82.64,30.89 L81.39,30.89 L81.39,39.61 L82.64,39.61 L82.64,41.75 L77.44,41.75 L77.44,39.61 L78.69,39.61 L78.69,30.89 L77.44,30.89 Z M104.07,30.89 L104.07,28.75 L109.28,28.75 L109.28,30.89 L108.04,30.89 L108.04,39.32 L109.28,39.1 L109.28,41.27 C107.262861,41.7339482 105.199806,41.9687675 103.13,41.97 C100.04,41.97 97.46,40.88 97.46,37.22 L97.46,30.89 L96.21,30.89 L96.21,28.75 L101.37,28.75 L101.37,30.89 L100.12,30.89 L100.12,36.67 C100.12,39.02 101.26,39.76 103.12,39.76 C103.864021,39.7861473 104.608635,39.7291273 105.34,39.59 L105.34,30.89 L104.07,30.89 Z M118.86,35.1 L122.58,39.61 L123.69,39.61 L123.69,41.75 L118.2,41.75 L118.2,39.61 L119.34,39.61 L117.03,36.81 L114.83,39.61 L116.08,39.61 L116.08,41.75 L110.82,41.75 L110.82,39.61 L111.94,39.61 L115.58,35.04 L112.15,30.89 L111.08,30.89 L111.08,28.75 L116.56,28.75 L116.56,30.89 L115.37,30.89 L117.46,33.42 L119.47,30.89 L118.18,30.89 L118.18,28.75 L123.39,28.75 L123.39,30.89 L122.31,30.89 L118.86,35.1 Z M144.71,30.89 L146.05,39.61 L147.32,39.61 L147.32,41.75 L142.2,41.75 L142.2,39.61 L143.47,39.61 L142.43,33.62 L140.02,39.69 L139.33,41.75 L137.56,41.75 L134.09,33.5 L133.09,39.61 L134.36,39.61 L134.36,41.75 L129.3,41.75 L129.3,39.61 L130.57,39.61 L131.94,30.89 L130.51,30.89 L130.51,28.75 L135.28,28.75 L138.47,36.75 L141.52,28.75 L146.12,28.75 L146.12,30.89 L144.71,30.89 Z M155.23,28.48 C157.032902,28.4555413 158.769126,29.1609502 160.044088,30.4359121 C161.31905,31.710874 162.024459,33.4470975 162,35.25 C161.996658,36.8343235 161.429473,38.365725 160.4,39.57 C160.320732,39.6791616 160.230238,39.7797113 160.13,39.87 L160.13,39.93 C158.845441,41.2423215 157.076024,41.9660093 155.24,41.93 C153.608683,41.9540417 152.024019,41.3855522 150.78,40.33 C150.78,40.33 150.89,40.43 150.78,40.33 C150.67,40.23 150.56,40.13 150.46,40.02 C147.854085,37.2906792 147.880624,32.9869757 150.52,30.29 L150.84,30 C152.075222,28.9859836 153.632218,28.4468869 155.23,28.48 Z M158.23,38.25 L158.23,38.34 C159.594115,36.5726011 159.594115,34.1073989 158.23,32.34 C156.466237,30.9652639 153.993763,30.9652639 152.23,32.34 C150.89804,34.0848583 150.89804,36.5051417 152.23,38.25 C153.988768,39.6391936 156.471232,39.6391936 158.23,38.25 Z M172.2,30.89 L172.2,28.75 L177.41,28.75 L177.41,30.89 L176.14,30.89 L176.14,39.85 L176.14,40.62 L176.14,41.75 L174.26,41.75 L167.61,33.76 L167.61,39.61 L168.87,39.61 L168.87,41.75 L163.69,41.75 L163.69,39.61 L164.93,39.61 L164.93,30.89 L163.69,30.89 L163.69,28.75 L167.1,28.75 L173.47,36.57 L173.47,30.89 L172.2,30.89 Z M185.59,28.75 L185.96,28.75 L190.42,28.75 L190.42,32.73 L188.06,32.73 L188.06,30.89 L185.96,30.89 L185.96,39.61 L187.45,39.61 L187.45,41.75 L181.79,41.75 L181.79,39.61 L183.28,39.61 L183.28,30.89 L181.18,30.89 L181.18,32.73 L178.84,32.73 L178.84,28.75 L183.28,28.75 L183.73,28.75 L185.59,28.75 Z M199.93,37.08 L202.08,39.61 L203.75,39.61 L203.75,41.75 L200.44,41.75 L197,37.53 L196.15,37.53 L196.15,39.61 L197.39,39.61 L197.39,41.76 L192.21,41.76 L192.21,39.62 L193.46,39.62 L193.46,30.9 L192.21,30.9 L192.21,28.76 L197.16,28.76 C200.4,28.76 202.52,30.05 202.52,33.16 C202.63935,34.9011978 201.578483,36.5068342 199.93,37.08 Z M196.13,30.89 L196.13,35.38 L197.13,35.38 C198.78,35.38 199.78,34.66 199.78,33.15 C199.78,31.64 198.81,30.89 197.13,30.89 L196.13,30.89 Z M225.09,28.75 L229.52,39.61 L230.52,39.61 L230.52,41.75 L225.07,41.75 L225.07,39.61 L226.54,39.61 L225.82,37.79 L221.03,37.79 L220.34,39.61 L221.81,39.61 L221.81,41.75 L216.6,41.75 L216.6,39.61 L217.65,39.61 L221.83,28.75 L225.09,28.75 Z M221.81,35.75 L225,35.75 L223.38,31.62 L221.81,35.75 Z M239.63,37.68 L241.97,37.68 L241.97,41.75 L235.97,41.75 L235.65,41.75 L232.03,41.75 L232.03,39.61 L233.28,39.61 L233.28,30.89 L232.03,30.89 L232.03,28.75 L237.22,28.75 L237.22,30.89 L235.97,30.89 L235.97,39.61 L239.63,39.61 L239.63,37.68 Z M213.09,24.5 L211.32,27.67 L208.97,27.67 L210.75,24.5 L213.09,24.5 Z M212.78,39.61 L212.78,37.9 L215.13,37.9 L215.13,41.75 L209.13,41.75 L208.44,41.75 L205.19,41.75 L205.19,39.61 L206.43,39.61 L206.43,30.89 L205.19,30.89 L205.19,28.75 L208.18,28.75 L209.13,28.75 L215,28.75 L215,32.6 L212.65,32.6 L212.65,30.89 L209.13,30.89 L209.13,34.15 L212.72,34.15 L212.72,36.3 L209.13,36.3 L209.13,39.61 L212.78,39.61 Z M144.65,18.45 L144.62,12.14 L143.38,12.14 L143.38,10 L148.57,10 L148.57,12.12 L147.32,12.12 L147.32,17.92 C147.32,20.27 148.47,21.01 150.32,21.01 C151.064021,21.0361473 151.808635,20.9791273 152.54,20.84 L152.54,12.14 L151.27,12.14 L151.27,10 L156.48,10 L156.48,12.12 L155.23,12.12 L155.23,20.55 L156.48,20.33 L156.48,22.5 C154.458471,22.9580592 152.392763,23.1927987 150.32,23.2 C147.24,23.2 144.65,22.1 144.65,18.45 Z" id="Combined-Shape" fill="#000000"></path>
                    <path d="M31.19,42.31 L31.19,50.2 L25.45,44.46 L25.45,36.57 L31.19,42.31 Z M41.57,32.96 L47.15,38.53 L39.04,38.53 L33.46,32.96 L41.57,32.96 Z M42.31,19 L50.2,19 L44.46,24.74 L36.57,24.74 L42.31,19 Z M32.96,8.62 L38.53,3.05 L38.53,11.16 L32.96,16.73 L32.96,8.62 Z M19,7.89 L19,3.19744231e-14 L24.74,5.74 L24.74,13.62 L19,7.89 Z M8.62,17.24 L3.04,11.66 L11.15,11.66 L16.73,17.24 L8.62,17.24 Z M7.89,31.19 L3.19744231e-14,31.19 L5.74,25.46 L13.62,25.46 L7.89,31.19 Z M17.24,41.57 L11.66,47.15 L11.66,39.04 L17.24,33.46 L17.24,41.57 Z" id="Combined-Shape" fill="#E53138"></path>
                    <path d="M24.74,36.57 L24.74,44.46 L19,50.2 L19,42.31 L24.74,36.57 Z M32.96,33.46 L38.53,39.04 L38.53,47.15 L32.96,41.57 L32.96,33.46 Z M36.57,25.46 L44.46,25.46 L50.2,31.19 L42.31,31.19 L36.57,25.46 Z M33.46,17.24 L39.04,11.66 L47.15,11.66 L41.57,17.24 L33.46,17.24 Z M25.45,13.62 L25.45,5.74 L31.19,2.93098879e-14 L31.19,7.89 L25.45,13.62 Z M17.24,16.73 L11.66,11.16 L11.66,3.05 L17.24,8.62 L17.24,16.73 Z M13.62,24.74 L5.74,24.74 L2.93098879e-14,19 L7.89,19 L13.62,24.74 Z M16.73,32.96 L11.15,38.53 L3.04,38.53 L8.62,32.96 L16.73,32.96 Z" id="Combined-Shape" fill="#EF8214"></path>
                </g>
            </g>
        </g>
    </g>
</svg>
